Coordinates
version=1
nRows=11
nColumns=63
inDegrees=yes

Units are S.I. units (second, meters, Newtons, ...)
If the header above contains a line with 'inDegrees', this indicates whether rotational values are in degrees (yes) or radians (no).

endheader
time	pelvis_tilt	pelvis_list	pelvis_rotation	pelvis_tx	pelvis_ty	pelvis_tz	hip_flexion_r	hip_adduction_r	hip_rotation_r	knee_angle_r	knee_angle_r_beta	ankle_angle_r	subtalar_angle_r	mtp_angle_r	hip_flexion_l	hip_adduction_l	hip_rotation_l	knee_angle_l	knee_angle_l_beta	ankle_angle_l	subtalar_angle_l	mtp_angle_l	L5_S1_Flex_Ext	L5_S1_Lat_Bending	L5_S1_axial_rotation	L4_L5_Flex_Ext	L4_L5_Lat_Bending	L4_L5_axial_rotation	L3_L4_Flex_Ext	L3_L4_Lat_Bending	L3_L4_axial_rotation	L2_L3_Flex_Ext	L2_L3_Lat_Bending	L2_L3_axial_rotation	L1_L2_Flex_Ext	L1_L2_Lat_Bending	L1_L2_axial_rotation	L1_T12_Flex_Ext	L1_T12_Lat_Bending	L1_T12_axial_rotation	Abs_r3	Abs_r2	Abs_r1	Abs_t1	Abs_t2	neck_flexion	neck_bending	neck_rotation	arm_flex_r	arm_add_r	arm_rot_r	elbow_flex_r	pro_sup_r	wrist_flex_r	wrist_dev_r	arm_flex_l	arm_add_l	arm_rot_l	elbow_flex_l	pro_sup_l	wrist_flex_l	wrist_dev_l
      1.70370370	      0.81278579	     -8.33381536	    102.88294716	      0.21772686	      0.80950131	      0.74462888	      3.60251147	     -4.04215866	     29.16412209	      1.37289968	      0.02396162	     19.65885637	    -15.10879498	      0.00000000	      8.81532406	     -1.98704374	     19.40025421	      1.74609184	      0.03047505	     13.55322492	    -13.64287753	      0.00000000	      0.08222481	     -1.10990342	      5.49184809	      0.15269969	     -1.47617155	      5.83508860	      0.13508714	     -2.69861917	      5.83508860	      0.09397473	     -2.69861917	      4.80536708	      0.07635396	     -2.26331505	      4.46212657	      0.04698326	     -1.71924040	      4.11888607	      0.58732358	    -12.55544946	     30.54401153	      0.00000000	      0.00000000	     19.60064845	      3.35503671	    -42.47764380	     62.55996776	    -19.30002077	     61.66427543	    109.85304187	     72.60989555	      6.24378545	     19.28444837	      6.88474868	    -19.96540097	     35.92168133	     68.70516741	     88.12274598	    -15.58863814	     -0.10349059
      1.72222222	      0.89654217	     -7.88197075	    102.90729672	      0.21707329	      0.81121479	      0.74367718	      3.12253177	     -3.85443038	     28.08212488	      1.39289717	      0.02431064	     19.26701212	    -14.87504788	      0.00000000	      8.28473823	     -2.16931263	     19.47836531	      1.77727411	      0.03101928	     13.05901284	    -13.62520321	      0.00000000	      0.09232732	     -1.00503812	      5.02661721	      0.17146107	     -1.33670070	      5.34078078	      0.15168456	     -2.44364969	      5.34078078	      0.10552090	     -2.44364969	      4.39829006	      0.08573515	     -2.04947374	      4.08412648	      0.05275583	     -1.55680405	      3.76996291	      0.65948482	    -11.36919226	     27.95653693	      0.00000000	      0.00000000	     18.16990082	      2.20832396	    -41.15989257	     60.96395440	    -20.75845564	     62.70693389	    108.17097253	     70.55682437	      1.09645313	     20.65752016	      5.99239008	    -19.62024973	     34.23715023	     67.10550218	     88.05423865	    -15.40991530	     -4.02777912
      1.74074074	      1.07037618	     -7.35539377	    102.21647683	      0.21730383	      0.81313202	      0.74247837	      2.77330429	     -3.50316036	     27.52351925	      1.59287865	      0.02780098	     19.06545882	    -14.44882845	      0.00000000	      7.60170286	     -2.54687016	     18.55536373	      1.85461205	      0.03236909	     12.63300541	    -13.67037484	      0.00000000	      0.09355494	     -0.86520488	      4.56297908	      0.17374088	     -1.15072248	      4.84816527	      0.15370141	     -2.10365913	      4.84816527	      0.10692394	     -2.10365913	      3.99260670	      0.08687512	     -1.76432578	      3.70742050	      0.05345729	     -1.34020235	      3.42223431	      0.66825358	     -9.78737059	     25.37792075	      0.00000000	      0.00000000	     17.42656028	      1.26347985	    -37.99217800	     59.66527068	    -21.01361982	     64.55934021	    105.56614948	     68.50521004	     -2.29953764	     19.72360000	      5.03064369	    -19.07520433	     32.42295144	     65.43800654	     87.92219909	    -15.99839075	     -7.13825966
      1.75925926	      1.39416477	     -6.77040560	    101.15855810	      0.21796840	      0.81501657	      0.74105813	      2.46014859	     -2.96154846	     27.14488611	      1.86893484	      0.03261907	     18.90928405	    -14.22210528	      0.00000000	      6.80569035	     -3.13796874	     17.47102094	      1.91632338	      0.03344615	     12.63854772	    -13.66590820	      0.00000000	      0.09225673	     -0.69171017	      4.03842670	      0.17132998	     -0.91997453	      4.29082837	      0.15156859	     -1.68182411	      4.29082837	      0.10544022	     -1.68182411	      3.53362336	      0.08566960	     -1.41053538	      3.28122169	      0.05271550	     -1.07145906	      3.02882003	      0.65898062	     -7.82476381	     22.46051778	      0.00000000	      0.00000000	     17.32497923	      1.12619746	    -32.45980488	     58.24026299	    -19.95862784	     66.42942564	    102.36984188	     67.19474185	     -2.89086609	     17.87993430	      3.96357476	    -18.45828225	     30.46878553	     63.71405293	     87.79058242	    -17.28077024	    -10.25675459
      1.77777778	      1.79437940	     -6.19841484	    100.00424615	      0.21880245	      0.81662687	      0.73944506	      2.18059450	     -2.34810836	     26.56158867	      2.22790138	      0.03888421	     18.96493157	    -13.71501023	      0.00000000	      5.98251384	     -3.81771921	     16.38929531	      1.94596250	      0.03396345	     13.22982824	    -13.25630024	      0.00000000	      0.09136473	     -0.51577891	      3.46981779	      0.16967343	     -0.68598595	      3.68668140	      0.15010311	     -1.25406484	      3.68668140	      0.10442075	     -1.25406484	      3.03609056	      0.08484129	     -1.05177635	      2.81922695	      0.05220580	     -0.79894153	      2.60236334	      0.65260911	     -5.83459416	     19.29808559	      0.00000000	      0.00000000	     17.48766525	      1.91744166	    -25.72209035	     56.55700920	    -18.12611386	     68.38699471	     98.95384623	     65.40929708	     -1.15980765	     14.38779444	      3.07847885	    -18.16043924	     29.11462449	     62.27075581	     87.59365082	    -19.61120510	    -12.50680334
      1.79629630	      2.27416575	     -5.64005208	     98.65680603	      0.22021841	      0.81770886	      0.73766524	      1.93359513	     -1.63583201	     26.06847130	      2.66736856	      0.04655436	     19.13953680	    -13.14558329	      0.00000000	      5.08575200	     -4.61902701	     15.51019859	      1.88162369	      0.03284053	     14.39420557	    -12.81460572	      0.00000000	      0.09178490	     -0.34776915	      2.98952985	      0.17045374	     -0.46253297	      3.17637547	      0.15079341	     -0.84556591	      3.17637547	      0.10490096	     -0.84556591	      2.61583862	      0.08523146	     -0.70917085	      2.42899300	      0.05244589	     -0.53869441	      2.24214739	      0.65561035	     -3.93403417	     16.62686817	      0.00000000	      0.00000000	     17.79185403	      3.30851552	    -18.67170364	     54.34884104	    -16.31571710	     69.32420621	     96.01936154	     67.68902164	      2.71699450	     11.59736608	      2.62731560	    -18.38159765	     29.00546332	     61.37162603	     87.42119658	    -22.88703622	    -12.46094930
      1.81481481	      2.67036918	     -5.07172390	     97.21764819	      0.22249200	      0.81834324	      0.73578542	      1.64075718	     -0.97151457	     25.68559565	      3.17556623	      0.05542409	     19.46671137	    -12.38888418	      0.00000000	      4.07197334	     -5.38117776	     14.82747753	      1.71593808	      0.02994877	     15.81884947	    -12.31471082	      0.00000000	      0.08367405	     -0.21928049	      2.67753683	      0.15539108	     -0.29164306	      2.84488288	      0.13746810	     -0.53315859	      2.84488288	      0.09563107	     -0.53315859	      2.34284473	      0.07769972	     -0.44715678	      2.17549867	      0.04781135	     -0.33966548	      2.00815262	      0.59767537	     -2.48054480	     14.89165658	      0.00000000	      0.00000000	     18.21362970	      4.42671579	    -13.21306569	     51.15573694	    -15.69918783	     68.47239666	     94.48187655	     74.90766398	      5.90163150	      9.18276883	      2.89638435	    -19.24661957	     30.53789815	     61.12824594	     87.29681883	    -26.02948102	    -10.28091078
      1.83333333	      2.94144203	     -4.48819162	     95.76775715	      0.22590864	      0.81865580	      0.73378404	      1.26803007	     -0.37457360	     25.71744552	      3.70974265	      0.06474722	     19.83521212	    -11.85646671	      0.00000000	      2.95503852	     -6.06087984	     14.62484213	      1.47185266	      0.02568868	     17.09539273	    -12.22823139	      0.00000000	      0.07059961	     -0.13238659	      2.41580345	      0.13111053	     -0.17607417	      2.56679117	      0.11598809	     -0.32188476	      2.56679117	      0.08068829	     -0.32188476	      2.11382802	      0.06555880	     -0.26996274	      1.96284031	      0.04034062	     -0.20506683	      1.81185259	      0.50428593	     -1.49758363	     13.43597407	      0.00000000	      0.00000000	     18.85401155	      5.21522119	     -9.29020797	     46.75450739	    -16.60752431	     66.15698353	     94.68557807	     80.02465964	      7.47007862	      8.08795724	      3.04912734	    -20.41877783	     31.54974870	     62.09627190	     87.28206133	    -26.67166042	     -7.12967285
      1.85185185	      2.86001250	     -3.96226899	     94.51810651	      0.23040404	      0.81870378	      0.73155830	      0.88715131	     -0.08989104	     25.44925375	      4.30894275	      0.07520524	     20.78837072	    -10.79282601	      0.00000000	      1.90585370	     -6.39044963	     14.44409053	      1.30677966	      0.02280761	     18.14107351	    -11.85244880	      0.00000000	      0.04996467	     -0.12805225	      2.10556916	      0.09278940	     -0.17030949	      2.23716724	      0.08208696	     -0.31134624	      2.23716724	      0.05710463	     -0.31134624	      1.84237302	      0.04639720	     -0.26112415	      1.71077495	      0.02854982	     -0.19835293	      1.57917687	      0.35689267	     -1.44855265	     11.71054402	      0.00000000	      0.00000000	     20.02499469	      4.80855746	     -9.19312303	     40.21784192	    -19.02948104	     61.40582913	     96.74166418	     84.83897241	      7.96182464	      7.79033064	      2.74243874	    -21.80456976	     30.98574667	     64.99531633	     87.77478566	    -25.38497381	     -2.89333584
      1.87037037	      2.85806418	     -3.43833378	     93.21897557	      0.23533014	      0.81856130	      0.72940325	      0.63832907	      0.26217751	     23.86753356	      5.15233503	      0.08992521	     22.34638667	     -7.69834978	      0.00000000	      0.87371260	     -6.77852643	     13.94544290	      1.26007860	      0.02199252	     19.09500078	    -11.33794756	      0.00000000	      0.02720899	     -0.11167516	      1.71592544	      0.05052981	     -0.14852797	      1.82317078	      0.04470165	     -0.27152699	      1.82317078	      0.03109715	     -0.27152699	      1.50143476	      0.02526627	     -0.22772799	      1.39418942	      0.01554722	     -0.17298483	      1.28694408	      0.19435108	     -1.26329179	      9.54346255	      0.00000000	      0.00000000	     21.46237284	      4.37290557	     -9.39366770	     32.51244509	    -22.59902367	     55.36005620	     99.66397488	     85.96695315	      7.93469861	      8.96115068	      1.89963806	    -22.47541779	     28.02284682	     68.49061401	     88.34966597	    -20.82333874	      0.78959785
      1.88888889	      2.99344597	     -2.96318459	     92.17216598	      0.23981012	      0.81819709	      0.72714907	      0.27045605	      0.69940226	     22.94318548	      5.74932991	      0.10034474	     23.43870104	     -6.01903489	      0.00000000	     -0.03385976	     -7.24258735	     13.75859947	      1.39039323	      0.02426694	     19.89336505	    -11.14167420	      0.00000000	      0.00736644	     -0.06997481	      1.29041163	      0.01368022	     -0.09306650	      1.37106235	      0.01210233	     -0.17013675	      1.37106235	      0.00841911	     -0.17013675	      1.12911017	      0.00684048	     -0.14269263	      1.04845945	      0.00420918	     -0.10839098	      0.96780872	      0.05261776	     -0.79156904	      7.17688234	      0.00000000	      0.00000000	     22.94999380	      3.62953236	    -10.29909658	     24.10270271	    -26.98593746	     47.76849607	    102.98113621	     86.21653391	      5.80008067	     11.72353611	      1.75548147	    -22.76741965	     25.85794098	     71.45943844	     88.65510181	    -17.69127543	      3.03845649
